Coordinates
version=1
nRows=6
nColumns=34
inDegrees=yes

Units are S.I. units (second, meters, Newtons, ...)
Angles are in degrees.

endheader
time	pelvis_tilt	pelvis_list	pelvis_rotation	pelvis_tx	pelvis_ty	pelvis_tz	hip_flexion_r	hip_adduction_r	hip_rotation_r	knee_angle_r	ankle_angle_r	subtalar_angle_r	mtp_angle_r	hip_flexion_l	hip_adduction_l	hip_rotation_l	knee_angle_l	socket_flexion	socket_adduction	socket_rotation	socket_tx	socket_ty	socket_tz	pros_ankle_rx	pros_ankle_ry	pros_ankle_rz	pros_ankle_tx	pros_ankle_ty	pros_ankle_tz	foot_flex	lumbar_extension	lumbar_bending	lumbar_rotation
      0.00000000	     -5.57183192	    -10.08043977	     -6.65889139	     -0.75858559	      1.03379212	      0.32214615	    -16.65666099	     11.24344431	     -4.54900437	     -3.39747426	     -0.54173353	     26.23077896	     36.97372832	     27.09470774	    -10.65731098	      0.10343794	     -5.86661412	     -3.17313022	      0.00000000	      0.00000000	      0.00000000	      0.00000000	      0.00000000	      0.00000000	      0.00000000	      0.00000000	      0.00000000	      0.00000000	      0.00000000	     -0.26229319	    -14.25619525	      5.69298914	      7.90645576
      0.00416667	     -5.57523982	    -10.09935580	     -6.72890857	     -0.75336718	      1.03275346	      0.32235734	    -16.84857142	     11.19271525	     -4.47527223	     -3.59257309	     -0.56976414	     26.25232069	     36.98788833	     27.13586232	    -10.61404557	      0.15837746	     -5.93321345	     -3.10123975	      0.00000000	      0.00000000	      0.00000000	      0.00000000	      0.00000000	      0.00000000	      0.00000000	      0.00000000	      0.00000000	      0.00000000	      0.00000000	     -0.58651370	    -14.21868519	      5.66372009	      7.92300724
      0.00833333	     -5.57255061	    -10.11383516	     -6.82404647	     -0.74793715	      1.03173821	      0.32262719	    -17.03763181	     11.12365566	     -4.38827402	     -3.81622798	     -0.60129208	     26.28434251	     37.01372867	     27.16107715	    -10.58222632	      0.20254645	     -6.02707809	     -3.04930519	      0.00000000	      0.00000000	      0.00000000	      0.00000000	      0.00000000	      0.00000000	      0.00000000	      0.00000000	      0.00000000	      0.00000000	      0.00000000	     -1.01149374	    -14.18529523	      5.60841275	      7.95900603
      0.01250000	     -5.55830682	    -10.10837353	     -6.94921171	     -0.74232576	      1.03074098	      0.32300526	    -17.22106727	     11.02350573	     -4.28545457	     -4.09494580	     -0.63288585	     26.33059147	     37.06217859	     27.16525552	    -10.55130958	      0.21566997	     -6.15819676	     -3.03339946	      0.00000000	      0.00000000	      0.00000000	      0.00000000	      0.00000000	      0.00000000	      0.00000000	      0.00000000	      0.00000000	      0.00000000	      0.00000000	     -1.49121565	    -14.17372986	      5.50819971	      8.02907530
      0.01666667	     -5.54079742	    -10.08191950	     -7.11150095	     -0.73659272	      1.02975140	      0.32346229	    -17.39483904	     10.88752736	     -4.18752664	     -4.41013411	     -0.65654156	     26.39676765	     37.14584538	     27.16598804	    -10.51698171	      0.17162179	     -6.34008392	     -3.03039867	      0.00000000	      0.00000000	      0.00000000	      0.00000000	      0.00000000	      0.00000000	      0.00000000	      0.00000000	      0.00000000	      0.00000000	      0.00000000	     -1.96127024	    -14.19616285	      5.36034926	      8.15358291
      0.02083333	     -5.42732610	     -9.98893707	     -7.42785423	     -0.73080115	      1.02902200	      0.32418669	    -17.54720317	     10.59895668	     -4.09550991	     -4.95205945	     -0.58712056	     26.68053125	     37.56524547	     27.07734127	    -10.48436592	     -0.16678818	     -6.74703046	     -3.15896890	      0.00000000	      0.00000000	      0.00000000	      0.00000000	      0.00000000	      0.00000000	      0.00000000	      0.00000000	      0.00000000	      0.00000000	      0.00000000	     -2.35323563	    -14.39922917	      4.98760850	      8.69409528
